<svg id="visual" viewBox="0 0 900 600" width="900" height="600" xmlns="http://www.w3.org/2000/svg" xmlns:xlink="http://www.w3.org/1999/xlink" version="1.1"><path d="M0 151L25 148C50 145 100 139 150 150C200 161 250 189 300 198C350 207 400 197 450 197C500 197 550 207 600 210C650 213 700 209 750 185C800 161 850 117 875 95L900 73L900 0L875 0C850 0 800 0 750 0C700 0 650 0 600 0C550 0 500 0 450 0C400 0 350 0 300 0C250 0 200 0 150 0C100 0 50 0 25 0L0 0Z" fill="#b7c8cf"></path><path d="M0 403L25 393C50 383 100 363 150 358C200 353 250 363 300 358C350 353 400 333 450 331C500 329 550 345 600 375C650 405 700 449 750 464C800 479 850 465 875 458L900 451L900 71L875 93C850 115 800 159 750 183C700 207 650 211 600 208C550 205 500 195 450 195C400 195 350 205 300 196C250 187 200 159 150 148C100 137 50 143 25 146L0 149Z" fill="#96b1b7"></path><path d="M0 601L25 601C50 601 100 601 150 601C200 601 250 601 300 601C350 601 400 601 450 601C500 601 550 601 600 601C650 601 700 601 750 601C800 601 850 601 875 601L900 601L900 449L875 456C850 463 800 477 750 462C700 447 650 403 600 373C550 343 500 327 450 329C400 331 350 351 300 356C250 361 200 351 150 356C100 361 50 381 25 391L0 401Z" fill="#6c8387"></path></svg>